<mxfile host="app.diagrams.net" modified="2024-02-01T14:55:00.718Z" agent="Mozilla/5.0 (Macintosh; Intel Mac OS X 10_15_7) AppleWebKit/605.1.15 (KHTML, like Gecko) Version/17.2.1 Safari/605.1.15" etag="dCPRrcuqtPNQ1_UWxW7N" version="23.1.1" type="github">
  <diagram name="Page-1" id="RoSIapXsWeXiM6_yh6TW">
    <mxGraphModel dx="984" dy="666" grid="1" gridSize="10" guides="1" tooltips="1" connect="1" arrows="1" fold="1" page="1" pageScale="1" pageWidth="827" pageHeight="1169" math="0" shadow="0">
      <root>
        <mxCell id="0" />
        <mxCell id="1" parent="0" />
        <mxCell id="QkZ17e7S1r32K-w_9-47-1" value="" style="verticalLabelPosition=bottom;verticalAlign=top;html=1;shadow=0;dashed=0;strokeWidth=1;shape=mxgraph.android.phone2;strokeColor=#c0c0c0;" vertex="1" parent="1">
          <mxGeometry x="50" y="50" width="261.54" height="510" as="geometry" />
        </mxCell>
        <mxCell id="QkZ17e7S1r32K-w_9-47-6" value="Enter your Location" style="strokeWidth=1;shadow=0;dashed=0;align=center;html=1;shape=mxgraph.mockup.forms.searchBox;strokeColor=#999999;mainText=;strokeColor2=#008cff;fontColor=#666666;fontSize=17;align=left;spacingLeft=3;whiteSpace=wrap;" vertex="1" parent="1">
          <mxGeometry x="80" y="159" width="200" height="20" as="geometry" />
        </mxCell>
        <mxCell id="QkZ17e7S1r32K-w_9-47-18" value="Locate Me" style="html=1;verticalLabelPosition=bottom;align=center;labelBackgroundColor=#ffffff;verticalAlign=top;strokeWidth=2;strokeColor=#0080F0;shadow=0;dashed=0;shape=mxgraph.ios7.icons.location_2;fontFamily=Tahoma;fontStyle=0;fontColor=#000000;" vertex="1" parent="1">
          <mxGeometry x="150" y="262" width="50" height="50" as="geometry" />
        </mxCell>
        <mxCell id="QkZ17e7S1r32K-w_9-47-19" value="" style="verticalLabelPosition=bottom;verticalAlign=top;html=1;shadow=0;dashed=0;strokeWidth=1;shape=mxgraph.android.phone2;strokeColor=#c0c0c0;" vertex="1" parent="1">
          <mxGeometry x="470" y="50" width="261.54" height="510" as="geometry" />
        </mxCell>
        <mxCell id="QkZ17e7S1r32K-w_9-47-22" value="&lt;b&gt;&lt;font style=&quot;font-size: 17px;&quot; face=&quot;Tahoma&quot;&gt;London&lt;/font&gt;&lt;/b&gt;" style="text;html=1;strokeColor=none;fillColor=none;align=center;verticalAlign=middle;whiteSpace=wrap;rounded=0;" vertex="1" parent="1">
          <mxGeometry x="560.77" y="100" width="80" height="40" as="geometry" />
        </mxCell>
        <mxCell id="QkZ17e7S1r32K-w_9-47-23" value="" style="rounded=1;whiteSpace=wrap;html=1;" vertex="1" parent="1">
          <mxGeometry x="507.7" y="138" width="186.13" height="170" as="geometry" />
        </mxCell>
        <mxCell id="QkZ17e7S1r32K-w_9-47-24" value="" style="verticalLabelPosition=bottom;verticalAlign=top;html=1;shape=mxgraph.basic.sun" vertex="1" parent="1">
          <mxGeometry x="570.77" y="170" width="60" height="60" as="geometry" />
        </mxCell>
        <mxCell id="QkZ17e7S1r32K-w_9-47-32" value="" style="rounded=1;whiteSpace=wrap;html=1;" vertex="1" parent="1">
          <mxGeometry x="493" y="350" width="47" height="150" as="geometry" />
        </mxCell>
        <mxCell id="QkZ17e7S1r32K-w_9-47-33" value="" style="rounded=1;whiteSpace=wrap;html=1;" vertex="1" parent="1">
          <mxGeometry x="550" y="350" width="47" height="150" as="geometry" />
        </mxCell>
        <mxCell id="QkZ17e7S1r32K-w_9-47-34" value="" style="rounded=1;whiteSpace=wrap;html=1;" vertex="1" parent="1">
          <mxGeometry x="610" y="350" width="47" height="150" as="geometry" />
        </mxCell>
        <mxCell id="QkZ17e7S1r32K-w_9-47-35" value="" style="rounded=1;whiteSpace=wrap;html=1;" vertex="1" parent="1">
          <mxGeometry x="670" y="350" width="47" height="150" as="geometry" />
        </mxCell>
        <mxCell id="QkZ17e7S1r32K-w_9-47-37" value="12&amp;nbsp;Â° C" style="text;html=1;strokeColor=none;fillColor=none;align=center;verticalAlign=middle;whiteSpace=wrap;rounded=0;" vertex="1" parent="1">
          <mxGeometry x="570.77" y="232" width="60" height="30" as="geometry" />
        </mxCell>
        <mxCell id="QkZ17e7S1r32K-w_9-47-38" value="Sunny" style="text;html=1;strokeColor=none;fillColor=none;align=center;verticalAlign=middle;whiteSpace=wrap;rounded=0;fontStyle=1" vertex="1" parent="1">
          <mxGeometry x="570.77" y="140" width="60" height="30" as="geometry" />
        </mxCell>
        <mxCell id="QkZ17e7S1r32K-w_9-47-39" value="Sunrise: 7.21 AM" style="text;html=1;strokeColor=none;fillColor=none;align=center;verticalAlign=middle;whiteSpace=wrap;rounded=0;fontSize=6;" vertex="1" parent="1">
          <mxGeometry x="469.77" y="277" width="140" height="20" as="geometry" />
        </mxCell>
        <mxCell id="QkZ17e7S1r32K-w_9-47-40" value="Sunset: 7.34 PM" style="text;html=1;strokeColor=none;fillColor=none;align=center;verticalAlign=middle;whiteSpace=wrap;rounded=0;fontSize=6;" vertex="1" parent="1">
          <mxGeometry x="589" y="277" width="140" height="20" as="geometry" />
        </mxCell>
      </root>
    </mxGraphModel>
  </diagram>
</mxfile>
